<?xml version="1.0" standalone="no"?><!DOCTYPE svg PUBLIC "-//W3C//DTD SVG 1.1//EN" "http://www.w3.org/Graphics/SVG/1.1/DTD/svg11.dtd"><svg class="icon" height="512" viewBox="0 0 1024 1024" version="1.1" xmlns="http://www.w3.org/2000/svg"><path d="M242.102857 858.075429A436.955429 436.955429 0 0 0 512 950.857143c242.358857 0 438.857143-196.498286 438.857143-438.857143 0-90.806857-27.574857-175.140571-74.788572-245.138286L242.066286 858.075429z m-77.458286-77.824L803.84 184.210286A437.211429 437.211429 0 0 0 512 73.142857C269.641143 73.142857 73.142857 269.641143 73.142857 512c0 101.010286 34.121143 194.084571 91.501714 268.251429zM512 1024C229.229714 1024 0 794.770286 0 512S229.229714 0 512 0s512 229.229714 512 512-229.229714 512-512 512z" fill="#E72C33" /></svg>